<mxfile host="65bd71144e">
    <diagram id="8ax8B-WlyXEa8-HSRe58" name="Page-1">
        <mxGraphModel dx="576" dy="466" grid="1" gridSize="10" guides="1" tooltips="1" connect="1" arrows="1" fold="1" page="1" pageScale="1" pageWidth="850" pageHeight="1100" math="0" shadow="0">
            <root>
                <mxCell id="0"/>
                <mxCell id="1" parent="0"/>
                <mxCell id="2" value="&lt;font style=&quot;font-size: 14px;&quot;&gt;xyz file&lt;/font&gt;" style="whiteSpace=wrap;html=1;aspect=fixed;" vertex="1" parent="1">
                    <mxGeometry x="40" y="260" width="80" height="80" as="geometry"/>
                </mxCell>
                <mxCell id="3" value="(fn(){&lt;br&gt;&lt;br&gt;&lt;br&gt;&lt;br&gt;&lt;br&gt;&lt;br&gt;})();" style="rounded=0;whiteSpace=wrap;html=1;fontSize=14;" vertex="1" parent="1">
                    <mxGeometry x="240" y="90" width="270" height="280" as="geometry"/>
                </mxCell>
                <mxCell id="5" value="&lt;font style=&quot;font-size: 14px;&quot;&gt;xyz file&lt;/font&gt;" style="whiteSpace=wrap;html=1;aspect=fixed;" vertex="1" parent="1">
                    <mxGeometry x="380" y="210" width="40" height="40" as="geometry"/>
                </mxCell>
                <mxCell id="7" value="IIFE--&amp;gt; Imediately Invoked Function Expression" style="rounded=1;whiteSpace=wrap;html=1;fontSize=14;fillColor=none;" vertex="1" parent="1">
                    <mxGeometry x="90" y="10" width="440" height="50" as="geometry"/>
                </mxCell>
                <mxCell id="8" value="" style="whiteSpace=wrap;html=1;aspect=fixed;fontSize=14;fillColor=none;" vertex="1" parent="1">
                    <mxGeometry x="20" y="200" width="540" height="540" as="geometry"/>
                </mxCell>
            </root>
        </mxGraphModel>
    </diagram>
</mxfile>